<svg xmlns="http://www.w3.org/2000/svg" width="26" height="24.969" viewBox="0 0 26 24.969">
  <defs>
    <style>
      .cls-1 {
        fill: #333;
        fill-rule: evenodd;
      }
    </style>
  </defs>
  <path id="Фигура_3" data-name="Фигура 3" class="cls-1" d="M1352.65,79.056l-12.23-6.935a0.79,0.79,0,0,0-.85,0l-12.22,6.935a0.762,0.762,0,0,0-.35.642V96.231a0.773,0.773,0,0,0,.77.769h24.45a0.775,0.775,0,0,0,.78-0.769V79.7A0.761,0.761,0,0,0,1352.65,79.056Zm-4.87,16.407h-15.56V93.579h15.56v1.884Zm0-3.421h-15.56V90.122h15.56v1.919Zm0-3.456h-15.56V86.632h15.56v1.954Zm0-3.491h-15.56V83.222h15.56v1.872Zm3.67,10.368h-2.12V82.453a0.775,0.775,0,0,0-.78-0.769h-17.11a0.773,0.773,0,0,0-.77.769V95.463h-2.12V80.112L1340,73.683l11.45,6.429v15.35Z" transform="translate(-1327 -72.031)"/>
</svg>
