<svg xmlns="http://www.w3.org/2000/svg" width="27" height="17" viewBox="0 0 27 17">
  <defs>
    <style>
      .cls-1 {
        fill: #ebc712;
        fill-rule: evenodd;
      }
    </style>
  </defs>
  <path id="Фигура_22" data-name="Фигура 22" class="cls-1" d="M864.134,180.724h-7.558V173.9a0.884,0.884,0,0,0-.866-0.9h-8.423a0.885,0.885,0,0,0-.866.9v3.865h-7.556a0.883,0.883,0,0,0-.866.9V189.1a0.884,0.884,0,0,0,.866.9h25.269a0.884,0.884,0,0,0,.866-0.9v-7.471A0.884,0.884,0,0,0,864.134,180.724ZM846.421,188.2h-6.69v-8.63h6.69v8.63Zm8.423-6.569V188.2h-6.69V174.8h6.69v6.827Zm8.423,6.569h-6.691v-5.667h6.691V188.2Z" transform="translate(-838 -173)"/>
</svg>
