<svg xmlns="http://www.w3.org/2000/svg" width="11" height="14" viewBox="0 0 11 14">
  <defs>
    <style>
      .cls-1 {
        fill: #fb2539;
        fill-rule: evenodd;
      }
    </style>
  </defs>
  <path id="Фигура_24" data-name="Фигура 24" class="cls-1" d="M1454.85,17.711h-6.75v-2.14a1.376,1.376,0,0,1,1.34-1.41h2.33a1.368,1.368,0,0,1,1.33,1.41V15.7a0.556,0.556,0,1,0,1.11,0V15.571A2.526,2.526,0,0,0,1451.77,13h-2.33a2.519,2.519,0,0,0-2.44,2.571v2.156h-0.85a1.188,1.188,0,0,0-1.15,1.211v6.851A1.188,1.188,0,0,0,1446.15,27h8.7a1.188,1.188,0,0,0,1.15-1.211V18.938A1.193,1.193,0,0,0,1454.85,17.711Zm0.05,8.078a0.051,0.051,0,0,1-.05.05h-8.69a0.046,0.046,0,0,1-.04-0.05V18.938a0.051,0.051,0,0,1,.04-0.05h8.71a0.046,0.046,0,0,1,.04.05v6.851h-0.01Zm-4.39-4.661a1.312,1.312,0,1,1-1.25,1.31A1.28,1.28,0,0,1,1450.51,21.128Z" transform="translate(-1445 -13)"/>
</svg>
