<svg xmlns="http://www.w3.org/2000/svg" width="19" height="19" viewBox="0 0 19 19">
  <defs>
    <style>
      .cls-1 {
        fill: #ebc712;
        fill-rule: evenodd;
      }
    </style>
  </defs>
  <path id="Фигура_23" data-name="Фигура 23" class="cls-1" d="M647.253,177.139a4.129,4.129,0,1,0-8.257,0A4.129,4.129,0,0,0,647.253,177.139Zm-6.065,0a1.941,1.941,0,1,1,3.848,0A1.933,1.933,0,1,1,641.188,177.139Zm12.839-3.913h-0.458a0.672,0.672,0,0,0-.567.315l-10.66,16.894a0.68,0.68,0,0,0,.566,1.046h0.433a0.669,0.669,0,0,0,.566-0.313l10.686-16.9A0.68,0.68,0,0,0,654.027,173.226ZM653.8,183.682a4.038,4.038,0,0,0-4.172,4.2,4.185,4.185,0,0,0,8.369,0A4.058,4.058,0,0,0,653.8,183.682Zm0,6.372a1.951,1.951,0,0,1-1.95-2.173A1.973,1.973,0,1,1,653.8,190.054Z" transform="translate(-639 -173)"/>
</svg>
